Coordinates
version=1
nRows=65
nColumns=12
inDegrees=yes

Units are S.I. units (second, meters, Newtons, ...)
Angles are in degrees

endheader
time	SC_y	SC_z	SC_x	AC_y	AC_z	AC_x	GH_y	GH_z	GH_yy	EL_x	PS_y
       0.0              -57.18           5.55          1.881          50.86          6.834           8.05          151.8         -13.79          23.08           12.2          53.74
   0.03477              -57.18           5.55          1.881          50.86          6.833          8.051          151.8         -13.78          23.07          12.21          53.75
   0.06954              -57.18          5.551          1.882          50.86          6.832          8.053          151.8         -13.77          23.06          12.22          53.75
    0.1043              -57.17          5.552          1.882          50.85          6.831          8.054          151.7         -13.76          23.05          12.23          53.76
    0.1391              -57.17          5.552          1.883          50.85           6.83          8.055          151.7         -13.75          23.04          12.24          53.76
    0.1738              -57.16          5.553          1.883          50.85          6.829          8.056          151.7         -13.74          23.03          12.25          53.77
    0.2086              -57.16          5.553          1.884          50.84          6.828          8.058          151.7         -13.72          23.02          12.26          53.78
    0.2434              -57.15          5.554          1.885          50.84          6.827           8.06          151.6         -13.71          23.01          12.27          53.79
    0.2781              -57.15          5.555          1.886          50.83          6.826          8.061          151.6         -13.69          22.99          12.28          53.79
    0.3129              -57.14          5.556          1.887          50.83          6.824          8.063          151.6         -13.68          22.98           12.3           53.8
    0.3477              -57.14          5.557          1.888          50.82          6.823          8.065          151.5         -13.66          22.96          12.31          53.81
    0.3824              -57.13          5.558          1.889          50.82          6.821          8.067          151.5         -13.64          22.94          12.33          53.82
    0.4172              -57.13          5.559           1.89          50.81           6.82           8.07          151.5         -13.62          22.92          12.34          53.83
     0.452              -57.12           5.56          1.891          50.81          6.818          8.072          151.4          -13.6           22.9          12.36          53.85
    0.4867              -57.11          5.561          1.892           50.8          6.816          8.075          151.4         -13.58          22.88          12.38          53.86
    0.5215               -57.1          5.562          1.894          50.79          6.814          8.078          151.3         -13.55          22.85           12.4          53.87
    0.5563              -57.09          5.564          1.895          50.78          6.812          8.081          151.3         -13.53          22.83          12.43          53.89
    0.5911              -57.08          5.565          1.897          50.77          6.809          8.084          151.2          -13.5           22.8          12.45           53.9
    0.6258              -57.07          5.567          1.898          50.76          6.806          8.088          151.1         -13.46          22.77          12.48          53.92
    0.6606              -57.06          5.569            1.9          50.75          6.803          8.092          151.1         -13.43          22.73          12.51          53.94
    0.6954              -57.05          5.571          1.903          50.74            6.8          8.097          151.0         -13.39          22.69          12.54          53.96
    0.7301              -57.03          5.573          1.905          50.73          6.797          8.101          150.9         -13.35          22.65          12.58          53.99
    0.7649              -57.01          5.576          1.907          50.71          6.793          8.107          150.8          -13.3           22.6          12.62          54.01
    0.7997               -57.0          5.578           1.91           50.7          6.788          8.113          150.7         -13.25          22.55          12.67          54.04
    0.8344              -56.98          5.581          1.914          50.68          6.783           8.12          150.6         -13.19           22.5          12.72          54.08
    0.8692              -56.95          5.585          1.917          50.66          6.778          8.127          150.4         -13.12          22.43          12.77          54.11
     0.904              -56.93          5.589          1.921          50.64          6.772          8.136          150.3         -13.05          22.36          12.84          54.15
    0.9387               -56.9          5.593          1.926          50.61          6.765          8.145          150.1         -12.97          22.28          12.91           54.2
    0.9735              -56.87          5.598          1.931          50.59          6.757          8.156          149.9         -12.88          22.19          12.99          54.25
     1.008              -56.83          5.603          1.937          50.55          6.748          8.168          149.7         -12.77          22.09          13.08          54.31
     1.043              -56.79           5.61          1.943          50.52          6.738          8.182          149.5         -12.65          21.97          13.18          54.38
     1.078              -56.74          5.617          1.951          50.48          6.726          8.198          149.2         -12.51          21.84           13.3          54.45
     1.113              -56.69          5.625          1.959          50.43          6.713          8.217          148.9         -12.35          21.68          13.44          54.54
     1.147              -56.63          5.635           1.97          50.37          6.697          8.238          148.5         -12.17           21.5          13.59          54.65
     1.182              -56.55          5.646          1.982          50.31          6.679          8.263          148.0         -11.95          21.29          13.78          54.77
     1.217              -56.47          5.659          1.996          50.23          6.657          8.293          147.5          -11.7          21.04           14.0          54.91
     1.252              -56.36          5.675          2.012          50.14          6.632          8.328          146.9         -11.39          20.74          14.26          55.08
     1.286              -56.24          5.694          2.032          50.03          6.601           8.37          146.1         -11.03          20.39          14.57          55.28
     1.321              -56.09          5.717          2.056           49.9          6.564          8.421          145.2         -10.59          19.96          14.95          55.53
     1.356               -55.9          5.745          2.086          49.73          6.519          8.483          144.1         -10.05          19.43          15.41          55.83
     1.391              -55.68           5.78          2.122          49.53          6.463           8.56          142.8         -9.388          18.78          15.98           56.2
     1.425              -55.39          5.823          2.168          49.28          6.393          8.655          141.1         -8.561          17.98           16.7          56.66
      1.46              -55.04          5.878          2.225          48.97          6.305          8.776          138.9         -7.519          16.96          17.59          57.24
     1.495              -54.58          5.947          2.298          48.57          6.194          8.929          136.2         -6.195          15.66          18.73          57.98
      1.53               -54.0          6.035          2.391          48.06          6.051          9.125          132.7           -4.5          14.01          20.19          58.92
     1.565              -53.26          6.149           2.51           47.4          5.868          9.377          128.3         -2.324          11.88          22.06          60.13
     1.599               -52.3          6.294          2.663          46.57          5.633          9.699          122.6         0.4543          9.165          24.45          61.68
     1.634              -51.11          6.477          2.855          45.51          5.339           10.1          115.4          3.948          5.751          27.45          63.63
     1.669              -49.65          6.699          3.089          44.23           4.98           10.6          106.7          8.206          1.591          31.11          66.01
     1.704              -47.96          6.957           3.36          42.74          4.564          11.17          96.52          13.14         -3.232          35.35          68.76
     1.738              -46.13          7.236          3.654          41.13          4.114          11.79          85.55          18.49         -8.454          39.95          71.74
     1.773               -44.3          7.515          3.947          39.51          3.663           12.4          74.58          23.83         -13.68          44.54          74.72
     1.808              -42.61          7.773          4.219          38.03          3.247          12.97          64.45          28.76          -18.5          48.79          77.47
     1.843              -41.15          7.996          4.453          36.74          2.889          13.47          55.71          33.02         -22.66          52.45          79.84
     1.877              -39.95          8.178          4.645          35.69          2.594          13.87          48.54          36.52         -26.07          55.45          81.79
     1.912               -39.0          8.324          4.797          34.85           2.36          14.19          42.84          39.29         -28.79          57.84          83.34
     1.947              -38.26          8.437          4.917          34.19          2.177          14.45          38.37          41.47         -30.91          59.71          84.56
     1.982              -37.68          8.526           5.01          33.68          2.034          14.64          34.89          43.17         -32.57          61.17           85.5
     2.017              -37.22          8.595          5.083          33.28          1.922          14.79          32.17          44.49         -33.87          62.31          86.24
     2.051              -36.87          8.649           5.14          32.97          1.834          14.92          30.04          45.53         -34.88           63.2          86.82
     2.086              -36.58          8.693          5.185          32.72          1.765          15.01          28.34          46.36         -35.69          63.91          87.28
     2.121              -36.36          8.727          5.222          32.52          1.709          15.09          26.98          47.02         -36.34          64.48          87.65
     2.156              -36.17          8.755          5.251          32.36          1.663          15.15          25.87          47.56         -36.86          64.95          87.95
      2.19              -36.02          8.778          5.275          32.22          1.626           15.2          24.97           48.0         -37.29          65.32           88.2
     2.225               -35.9          8.797          5.295          32.11          1.596          15.24          24.23          48.36         -37.65          65.64           88.4
